<?xml version="1.0" encoding="UTF-8" standalone="no"?><svg xmlns="http://www.w3.org/2000/svg" xmlns:xlink="http://www.w3.org/1999/xlink" contentScriptType="application/ecmascript" contentStyleType="text/css" height="1390px" preserveAspectRatio="none" style="width:608px;height:1390px;" version="1.1" viewBox="0 0 608 1390" width="608px" zoomAndPan="magnify"><defs><filter height="300%" id="f1tdfbaclagsxw" width="300%" x="-1" y="-1"><feGaussianBlur result="blurOut" stdDeviation="2.0"/><feColorMatrix in="blurOut" result="blurOut2" type="matrix" values="0 0 0 0 0 0 0 0 0 0 0 0 0 0 0 0 0 0 .4 0"/><feOffset dx="4.0" dy="4.0" in="blurOut2" result="blurOut3"/><feBlend in="SourceGraphic" in2="blurOut3" mode="normal"/></filter></defs><g><text fill="#000000" font-family="sans-serif" font-size="18" lengthAdjust="spacingAndGlyphs" textLength="281" x="177" y="18.6855">Scheduler-Bot - Use Case Diagram</text><!--cluster admin usecases--><rect fill="#FFFFFF" filter="url(#f1tdfbaclagsxw)" height="631" style="stroke: #000000; stroke-width: 2.0;" width="365" x="236" y="46.6406"/><text fill="#000000" font-family="sans-serif" font-size="14" font-weight="bold" lengthAdjust="spacingAndGlyphs" textLength="113" x="362" y="63.1738">admin usecases</text><!--cluster customer usecases--><rect fill="#FFFFFF" filter="url(#f1tdfbaclagsxw)" height="682" style="stroke: #000000; stroke-width: 2.0;" width="297" x="270" y="701.6406"/><text fill="#000000" font-family="sans-serif" font-size="14" font-weight="bold" lengthAdjust="spacingAndGlyphs" textLength="137" x="350" y="718.1738">customer usecases</text><ellipse cx="418.511" cy="639.8428" fill="#FEFECE" filter="url(#f1tdfbaclagsxw)" rx="96.511" ry="21.7022" style="stroke: #A80036; stroke-width: 1.5;"/><text fill="#000000" font-family="sans-serif" font-size="14" lengthAdjust="spacingAndGlyphs" textLength="165" x="336.011" y="645.1475">1. subscribe to application</text><ellipse cx="418.6118" cy="111.863" fill="#FEFECE" filter="url(#f1tdfbaclagsxw)" rx="134.1118" ry="29.2224" style="stroke: #A80036; stroke-width: 1.5;"/><text fill="#000000" font-family="sans-serif" font-size="14" lengthAdjust="spacingAndGlyphs" textLength="247" x="295.1118" y="117.1677">1.1 provide access to Google Calender</text><ellipse cx="418.5369" cy="211.848" fill="#FEFECE" filter="url(#f1tdfbaclagsxw)" rx="166.5369" ry="35.7074" style="stroke: #A80036; stroke-width: 1.5;"/><text fill="#000000" font-family="sans-serif" font-size="14" lengthAdjust="spacingAndGlyphs" textLength="315" x="261.0369" y="217.1527">1.2 create a subscriber defined Facebook chatbot</text><ellipse cx="418.5052" cy="300.8417" fill="#FEFECE" filter="url(#f1tdfbaclagsxw)" rx="81.5052" ry="18.701" style="stroke: #A80036; stroke-width: 1.5;"/><text fill="#000000" font-family="sans-serif" font-size="14" lengthAdjust="spacingAndGlyphs" textLength="130" x="353.5052" y="306.1463">1.3 select availability</text><ellipse cx="418.5573" cy="515.8521" fill="#FEFECE" filter="url(#f1tdfbaclagsxw)" rx="154.0573" ry="33.2115" style="stroke: #A80036; stroke-width: 1.5;"/><text fill="#000000" font-family="sans-serif" font-size="14" lengthAdjust="spacingAndGlyphs" textLength="289" x="274.0573" y="521.1568">1.4 set service type eg. doctor, lawyer, barber</text><ellipse cx="418.2597" cy="383.3926" fill="#FEFECE" filter="url(#f1tdfbaclagsxw)" rx="131.7597" ry="28.7519" style="stroke: #A80036; stroke-width: 1.5;"/><text fill="#000000" font-family="sans-serif" font-size="14" lengthAdjust="spacingAndGlyphs" textLength="242" x="297.2597" y="388.6973">1.4.1 add work packages with duration</text><ellipse cx="418.6163" cy="955.7639" fill="#FEFECE" filter="url(#f1tdfbaclagsxw)" rx="86.1163" ry="19.6233" style="stroke: #A80036; stroke-width: 1.5;"/><text fill="#000000" font-family="sans-serif" font-size="14" lengthAdjust="spacingAndGlyphs" textLength="141" x="348.1163" y="961.0686">2. ask for appointment</text><ellipse cx="418.6279" cy="839.4662" fill="#FEFECE" filter="url(#f1tdfbaclagsxw)" rx="119.6279" ry="26.3256" style="stroke: #A80036; stroke-width: 1.5;"/><text fill="#000000" font-family="sans-serif" font-size="14" lengthAdjust="spacingAndGlyphs" textLength="216" x="310.6279" y="844.7709">2.1 return possible work packages</text><ellipse cx="418.3193" cy="1146.6045" fill="#FEFECE" filter="url(#f1tdfbaclagsxw)" rx="87.8193" ry="19.9639" style="stroke: #A80036; stroke-width: 1.5;"/><text fill="#000000" font-family="sans-serif" font-size="14" lengthAdjust="spacingAndGlyphs" textLength="145" x="345.8193" y="1151.9092">3 select a work pakage</text><ellipse cx="418.6395" cy="1033.7685" fill="#FEFECE" filter="url(#f1tdfbaclagsxw)" rx="103.6395" ry="23.1279" style="stroke: #A80036; stroke-width: 1.5;"/><text fill="#000000" font-family="sans-serif" font-size="14" lengthAdjust="spacingAndGlyphs" textLength="181" x="328.1395" y="1039.0732">3.1 return possible time slots</text><ellipse cx="418.4197" cy="1348.4246" fill="#FEFECE" filter="url(#f1tdfbaclagsxw)" rx="81.9197" ry="18.7839" style="stroke: #A80036; stroke-width: 1.5;"/><text fill="#000000" font-family="sans-serif" font-size="14" lengthAdjust="spacingAndGlyphs" textLength="131" x="352.9197" y="1353.7292">4 select appointment</text><ellipse cx="418.6999" cy="1230.5806" fill="#FEFECE" filter="url(#f1tdfbaclagsxw)" rx="132.6999" ry="28.94" style="stroke: #A80036; stroke-width: 1.5;"/><text fill="#000000" font-family="sans-serif" font-size="14" lengthAdjust="spacingAndGlyphs" textLength="244" x="296.6999" y="1235.8853">4.1 send approval notification to admin</text><ellipse cx="418.7471" cy="757.69" fill="#FEFECE" filter="url(#f1tdfbaclagsxw)" rx="88.2471" ry="20.0494" style="stroke: #A80036; stroke-width: 1.5;"/><text fill="#000000" font-family="sans-serif" font-size="14" lengthAdjust="spacingAndGlyphs" textLength="146" x="345.7471" y="762.9947">5 approve appointment</text><!--entity SC--><ellipse cx="76.5" cy="1123.25" fill="#FEFECE" filter="url(#f1tdfbaclagsxw)" rx="8" ry="8" style="stroke: #A80036; stroke-width: 2.0;"/><path d="M76.5,1131.25 L76.5,1158.25 M63.5,1139.25 L89.5,1139.25 M76.5,1158.25 L63.5,1173.25 M76.5,1158.25 L89.5,1173.25 " fill="#FEFECE" filter="url(#f1tdfbaclagsxw)" style="stroke: #A80036; stroke-width: 2.0;"/><text fill="#000000" font-family="sans-serif" font-size="14" lengthAdjust="spacingAndGlyphs" textLength="112" x="20.5" y="1194.7832">Service Customer</text><text fill="#000000" font-family="sans-serif" font-size="14" font-style="italic" lengthAdjust="spacingAndGlyphs" textLength="80" x="36.5" y="1110.1738">«Chat User»</text><!--entity AS--><ellipse cx="76.5" cy="695.25" fill="#FEFECE" filter="url(#f1tdfbaclagsxw)" rx="8" ry="8" style="stroke: #A80036; stroke-width: 2.0;"/><path d="M76.5,703.25 L76.5,730.25 M63.5,711.25 L89.5,711.25 M76.5,730.25 L63.5,745.25 M76.5,730.25 L89.5,745.25 " fill="#FEFECE" filter="url(#f1tdfbaclagsxw)" style="stroke: #A80036; stroke-width: 2.0;"/><text fill="#000000" font-family="sans-serif" font-size="14" lengthAdjust="spacingAndGlyphs" textLength="141" x="6" y="766.7832">Application Subscriber</text><text fill="#000000" font-family="sans-serif" font-size="14" font-style="italic" lengthAdjust="spacingAndGlyphs" textLength="55" x="49" y="682.1738">«Admin»</text><path d="M338.44,627.5266 C299.629,617.5596 255.563,599.4566 228,566.6406 C200.508,533.9096 211.977,514.3736 213,471.6406 C216.334,332.4106 139.521,266.1906 228,158.6406 C242.687,140.7906 262.976,129.1006 284.863,121.5506 " fill="none" style="stroke: #A80036; stroke-width: 1.0; stroke-dasharray: 7.0,7.0;"/><polygon fill="#A80036" points="289.855,119.9106,280.0564,118.9168,285.1044,121.4699,282.5513,126.5179,289.855,119.9106" style="stroke: #A80036; stroke-width: 1.0;"/><text fill="#000000" font-family="sans-serif" font-size="13" lengthAdjust="spacingAndGlyphs" textLength="41" x="178" y="486.1357">include</text><path d="M335.241,628.5346 C296.348,618.8366 253.166,600.6706 228,566.6406 C165.506,482.1376 201.281,435.0856 213,330.6406 C216.354,300.7506 207.244,286.4106 228,264.6406 C240.882,251.1306 256.889,240.9606 274.111,233.3306 " fill="none" style="stroke: #A80036; stroke-width: 1.0; stroke-dasharray: 7.0,7.0;"/><polygon fill="#A80036" points="278.999,231.2506,269.1512,231.1038,274.4002,233.213,272.291,238.4619,278.999,231.2506" style="stroke: #A80036; stroke-width: 1.0;"/><text fill="#000000" font-family="sans-serif" font-size="13" lengthAdjust="spacingAndGlyphs" textLength="41" x="178" y="345.1357">include</text><path d="M336.203,628.2986 C297.304,618.5406 253.832,600.3916 228,566.6406 C183.245,508.1666 204.668,474.8036 213,401.6406 C216.355,372.1806 206.62,357.1806 228,336.6406 C255.645,310.0806 296.4,300.0306 333.127,297.0506 " fill="none" style="stroke: #A80036; stroke-width: 1.0; stroke-dasharray: 7.0,7.0;"/><polygon fill="#A80036" points="338.515,296.6606,329.2493,293.3218,333.5281,297.0221,329.8278,301.3009,338.515,296.6606" style="stroke: #A80036; stroke-width: 1.0;"/><text fill="#000000" font-family="sans-serif" font-size="13" lengthAdjust="spacingAndGlyphs" textLength="41" x="178" y="416.1357">include</text><path d="M418.5,618.0416 C418.5,600.3866 418.5,574.9896 418.5,553.9066 " fill="none" style="stroke: #A80036; stroke-width: 1.0; stroke-dasharray: 7.0,7.0;"/><polygon fill="#A80036" points="418.5,548.6466,414.5,557.6466,418.5,553.6466,422.5,557.6466,418.5,548.6466" style="stroke: #A80036; stroke-width: 1.0;"/><text fill="#000000" font-family="sans-serif" font-size="13" lengthAdjust="spacingAndGlyphs" textLength="41" x="386" y="588.8857">include</text><path d="M418.5,482.3316 C418.5,462.7006 418.5,437.9076 418.5,418.0836 " fill="none" style="stroke: #A80036; stroke-width: 1.0; stroke-dasharray: 7.0,7.0;"/><polygon fill="#A80036" points="418.5,412.8946,414.5,421.8946,418.5,417.8946,422.5,421.8946,418.5,412.8946" style="stroke: #A80036; stroke-width: 1.0;"/><text fill="#000000" font-family="sans-serif" font-size="13" lengthAdjust="spacingAndGlyphs" textLength="41" x="386" y="453.1357">include</text><path d="M418.5,935.9626 C418.5,918.3246 418.5,892.1276 418.5,871.5046 " fill="none" style="stroke: #A80036; stroke-width: 1.0; stroke-dasharray: 7.0,7.0;"/><polygon fill="#A80036" points="418.5,866.3896,414.5,875.3896,418.5,871.3896,422.5,875.3896,418.5,866.3896" style="stroke: #A80036; stroke-width: 1.0;"/><text fill="#000000" font-family="sans-serif" font-size="13" lengthAdjust="spacingAndGlyphs" textLength="41" x="386" y="906.6357">include</text><path d="M418.5,1126.4386 C418.5,1108.4896 418.5,1082.0666 418.5,1062.0006 " fill="none" style="stroke: #A80036; stroke-width: 1.0; stroke-dasharray: 7.0,7.0;"/><polygon fill="#A80036" points="418.5,1056.7846,414.5,1065.7846,418.5,1061.7846,422.5,1065.7846,418.5,1056.7846" style="stroke: #A80036; stroke-width: 1.0;"/><text fill="#000000" font-family="sans-serif" font-size="13" lengthAdjust="spacingAndGlyphs" textLength="41" x="386" y="1097.1357">include</text><path d="M418.5,1329.4192 C418.5,1312.0805 418.5,1286.1626 418.5,1265.2256 " fill="none" style="stroke: #A80036; stroke-width: 1.0; stroke-dasharray: 7.0,7.0;"/><polygon fill="#A80036" points="418.5,1260.0176,414.5,1269.0176,418.5,1265.0176,422.5,1269.0176,418.5,1260.0176" style="stroke: #A80036; stroke-width: 1.0;"/><text fill="#000000" font-family="sans-serif" font-size="13" lengthAdjust="spacingAndGlyphs" textLength="41" x="386" y="1300.1357">include</text><path d="M147.125,702.4636 C206.866,688.5826 292.373,668.7146 351.148,655.0576 " fill="none" style="stroke: #A80036; stroke-width: 1.0;"/><path d="M147.125,726.6266 C203.077,733.0446 281.632,742.0556 339.657,748.7116 " fill="none" style="stroke: #A80036; stroke-width: 1.0;"/><path d="M114.527,1095.4166 C141.99,1061.2676 182.445,1018.2776 228,993.6406 C260.909,975.8426 301.099,966.3396 335.985,961.2826 " fill="none" style="stroke: #A80036; stroke-width: 1.0;"/><path d="M132.505,1146.6406 C185.975,1146.6406 268.018,1146.6406 330.371,1146.6406 " fill="none" style="stroke: #A80036; stroke-width: 1.0;"/><path d="M126.844,1197.6736 C154.637,1224.2316 191.1,1255.6536 228,1277.6406 C271.008,1303.2668 324.853,1322.3631 364.143,1334.2589 " fill="none" style="stroke: #A80036; stroke-width: 1.0;"/><!--
@startuml

title Scheduler-Bot - Use Case Diagram 

left to right direction

    :Service Customer: as SC <<Chat User>>
    :Application Subscriber: as AS <<Admin>>

rectangle "admin usecases" {  
    (1. subscribe to application) as usecase1
    (1.1 provide access to Google Calender) as usecase1.1
    (1.2 create a subscriber defined Facebook chatbot) as usecase1.2
    (1.3 select availability) as usecase1.3
    (1.4 set service type eg. doctor, lawyer, barber) as usecase1.4
    (1.4.1 add work packages with duration) as usecase1.5
   
 
    usecase1 .> usecase1.1 : include 
    usecase1 .> usecase1.2 : include
    usecase1 .> usecase1.3 : include
    usecase1 .> usecase1.4 : include
    usecase1.4 .> usecase1.5 : include

}

rectangle "customer usecases" {    
    (2. ask for appointment) as usecase2
    (2.1 return possible work packages) as usecase2.1
    (3 select a work pakage) as usecase3
    (3.1 return possible time slots) as usecase3.1
    (4 select appointment) as usecase4
    (4.1 send approval notification to admin) as usecase4.1 
  (5 approve appointment) as usecase5

     usecase2 .>  usecase2.1 : include
     usecase3 .>  usecase3.1 : include
     usecase4 .>  usecase4.1 : include
 
}
 
AS - - usecase1
AS - - usecase5

SC - - usecase2
SC - - usecase3
SC - - usecase4



@enduml

PlantUML version 2017.11(Wed Apr 19 19:18:59 EEST 2017)
(GPL source distribution)
Java Runtime: Java(TM) SE Runtime Environment
JVM: Java HotSpot(TM) 64-Bit Server VM
Java Version: 1.8.0_162-b12
Operating System: Windows 10
OS Version: 10.0
Default Encoding: Cp1252
Language: en
Country: US
--></g></svg>